<?xml version="1.0" encoding="UTF-8" standalone="no"?>
<!DOCTYPE svg PUBLIC "-//W3C//DTD SVG 1.1//EN"
 "http://www.w3.org/Graphics/SVG/1.1/DTD/svg11.dtd">
<!-- Generated by graphviz version 2.46.0 (20210118.1747)
 -->
<!-- Title: conferences Pages: 1 -->
<svg width="1602pt" height="630pt"
 viewBox="0.00 0.00 1601.60 630.46" xmlns="http://www.w3.org/2000/svg" xmlns:xlink="http://www.w3.org/1999/xlink">
<g id="graph0" class="graph" transform="scale(1 1) rotate(0) translate(4 626.46)">
<title>conferences</title>
<polygon fill="white" stroke="transparent" points="-4,4 -4,-626.46 1597.6,-626.46 1597.6,4 -4,4"/>
<g id="clust1" class="cluster">
<title>cluster_0</title>
<polygon fill="none" stroke="black" points="8,-444.46 8,-599.46 92,-599.46 92,-444.46 8,-444.46"/>
<text text-anchor="middle" x="50" y="-584.26" font-family="Times,serif" font-size="14.00">January</text>
</g>
<g id="clust2" class="cluster">
<title>cluster_1</title>
<polygon fill="none" stroke="black" points="112,-444.46 112,-599.46 208,-599.46 208,-444.46 112,-444.46"/>
<text text-anchor="middle" x="160" y="-584.26" font-family="Times,serif" font-size="14.00">February</text>
</g>
<g id="clust3" class="cluster">
<title>cluster_2</title>
<polygon fill="none" stroke="black" points="228,-31.46 228,-258.46 324,-258.46 324,-31.46 228,-31.46"/>
<text text-anchor="middle" x="276" y="-243.26" font-family="Times,serif" font-size="14.00">March</text>
</g>
<g id="clust4" class="cluster">
<title>cluster_3</title>
<polygon fill="none" stroke="black" points="344,-189.46 344,-543.46 441,-543.46 441,-189.46 344,-189.46"/>
<text text-anchor="middle" x="392.5" y="-528.26" font-family="Times,serif" font-size="14.00">April</text>
</g>
<g id="clust5" class="cluster">
<title>cluster_4</title>
<polygon fill="none" stroke="black" points="461,-444.46 461,-614.46 558,-614.46 558,-444.46 461,-444.46"/>
<text text-anchor="middle" x="509.5" y="-599.26" font-family="Times,serif" font-size="14.00">May</text>
</g>
<g id="clust6" class="cluster">
<title>cluster_5</title>
<polygon fill="none" stroke="black" points="578,-86.46 578,-409.46 675,-409.46 675,-86.46 578,-86.46"/>
<text text-anchor="middle" x="626.5" y="-394.26" font-family="Times,serif" font-size="14.00">June</text>
</g>
<g id="clust7" class="cluster">
<title>cluster_6</title>
<polygon fill="none" stroke="black" points="695,-253.46 695,-479.46 792,-479.46 792,-253.46 695,-253.46"/>
<text text-anchor="middle" x="743.5" y="-464.26" font-family="Times,serif" font-size="14.00">July</text>
</g>
<g id="clust8" class="cluster">
<title>cluster_7</title>
<polygon fill="none" stroke="black" points="812,-316.46 812,-415.46 909,-415.46 909,-316.46 812,-316.46"/>
<text text-anchor="middle" x="860.5" y="-400.26" font-family="Times,serif" font-size="14.00">August</text>
</g>
<g id="clust9" class="cluster">
<title>cluster_8</title>
<polygon fill="none" stroke="black" points="929,-134.46 929,-487.46 1026,-487.46 1026,-134.46 929,-134.46"/>
<text text-anchor="middle" x="977.5" y="-472.26" font-family="Times,serif" font-size="14.00">September</text>
</g>
<g id="clust10" class="cluster">
<title>cluster_9</title>
<polygon fill="none" stroke="black" points="1046,-320.46 1046,-475.46 1143,-475.46 1143,-320.46 1046,-320.46"/>
<text text-anchor="middle" x="1094.5" y="-460.26" font-family="Times,serif" font-size="14.00">October</text>
</g>
<g id="clust11" class="cluster">
<title>cluster_10</title>
<polygon fill="none" stroke="black" points="1163,-14.46 1163,-566.46 1260,-566.46 1260,-14.46 1163,-14.46"/>
<text text-anchor="middle" x="1211.5" y="-551.26" font-family="Times,serif" font-size="14.00">November</text>
</g>
<g id="clust12" class="cluster">
<title>cluster_11</title>
<polygon fill="none" stroke="black" points="1280,-313.46 1280,-356.46 1352.6,-356.46 1352.6,-313.46 1280,-313.46"/>
<text text-anchor="middle" x="1316.3" y="-341.26" font-family="Times,serif" font-size="14.00">December</text>
</g>
<g id="clust13" class="cluster">
<title>cluster_12</title>
<polygon fill="none" stroke="black" points="1371.6,-28.46 1371.6,-295.46 1468.6,-295.46 1468.6,-28.46 1371.6,-28.46"/>
<text text-anchor="middle" x="1420.1" y="-280.26" font-family="Times,serif" font-size="14.00">January</text>
</g>
<g id="clust14" class="cluster">
<title>cluster_13</title>
<polygon fill="none" stroke="black" points="1488.6,-388.46 1488.6,-543.46 1585.6,-543.46 1585.6,-388.46 1488.6,-388.46"/>
<text text-anchor="middle" x="1537.1" y="-528.26" font-family="Times,serif" font-size="14.00">February</text>
</g>
<!-- order_node_0 -->
<!-- order_node_1 -->
<!-- order_node_0&#45;&gt;order_node_1 -->
<!-- node_0 -->
<g id="node2" class="node">
<title>node_0</title>
<g id="a_node2"><a xlink:href="http://www.ijcai.org/" xlink:title="International Joint Conference on Artificial Intelligence" target="_blank">
<polygon fill="none" stroke="black" points="84,-512.46 16,-512.46 16,-474.46 84,-474.46 84,-512.46"/>
<text text-anchor="middle" x="50" y="-497.26" font-family="Times,serif" font-size="14.00">IJCAI</text>
<text text-anchor="middle" x="50" y="-482.26" font-family="Times,serif" font-size="14.00">Abstracts</text>
</a>
</g>
</g>
<!-- node_2 -->
<g id="node5" class="node">
<title>node_2</title>
<g id="a_node5"><a xlink:href="http://www.ijcai.org/" xlink:title="International Joint Conference on Artificial Intelligence" target="_blank">
<polygon fill="none" stroke="black" points="200,-512.46 120,-512.46 120,-474.46 200,-474.46 200,-512.46"/>
<text text-anchor="middle" x="160" y="-497.26" font-family="Times,serif" font-size="14.00">IJCAI</text>
<text text-anchor="middle" x="160" y="-482.26" font-family="Times,serif" font-size="14.00">Submission</text>
</a>
</g>
</g>
<!-- node_0&#45;&gt;node_2 -->
<g id="edge1" class="edge">
<title>node_0&#45;&gt;node_2</title>
<path fill="none" stroke="black" d="M84.28,-493.46C92.39,-493.46 101.23,-493.46 109.91,-493.46"/>
<polygon fill="black" stroke="black" points="109.95,-496.96 119.95,-493.46 109.95,-489.96 109.95,-496.96"/>
</g>
<!-- node_1 -->
<g id="node3" class="node">
<title>node_1</title>
<g id="a_node3"><a xlink:href="https://icml.cc" xlink:title="Conference on Neural Information Processing Systems" target="_blank">
<polygon fill="none" stroke="black" points="84,-568.46 16,-568.46 16,-530.46 84,-530.46 84,-568.46"/>
<text text-anchor="middle" x="50" y="-553.26" font-family="Times,serif" font-size="14.00">ICML</text>
<text text-anchor="middle" x="50" y="-538.26" font-family="Times,serif" font-size="14.00">Abstracts</text>
</a>
</g>
</g>
<!-- node_3 -->
<g id="node6" class="node">
<title>node_3</title>
<g id="a_node6"><a xlink:href="https://icml.cc" xlink:title="Conference on Neural Information Processing Systems" target="_blank">
<polygon fill="none" stroke="black" points="200,-568.46 120,-568.46 120,-530.46 200,-530.46 200,-568.46"/>
<text text-anchor="middle" x="160" y="-553.26" font-family="Times,serif" font-size="14.00">ICML</text>
<text text-anchor="middle" x="160" y="-538.26" font-family="Times,serif" font-size="14.00">Submission</text>
</a>
</g>
</g>
<!-- node_1&#45;&gt;node_3 -->
<g id="edge3" class="edge">
<title>node_1&#45;&gt;node_3</title>
<path fill="none" stroke="black" d="M84.28,-549.46C92.39,-549.46 101.23,-549.46 109.91,-549.46"/>
<polygon fill="black" stroke="black" points="109.95,-552.96 119.95,-549.46 109.95,-545.96 109.95,-552.96"/>
</g>
<!-- order_node_2 -->
<!-- order_node_1&#45;&gt;order_node_2 -->
<!-- node_7 -->
<g id="node12" class="node">
<title>node_7</title>
<g id="a_node12"><a xlink:href="http://www.ijcai.org/" xlink:title="International Joint Conference on Artificial Intelligence" target="_blank">
<polygon fill="none" stroke="black" points="433,-512.46 352,-512.46 352,-474.46 433,-474.46 433,-512.46"/>
<text text-anchor="middle" x="392.5" y="-497.26" font-family="Times,serif" font-size="14.00">IJCAI</text>
<text text-anchor="middle" x="392.5" y="-482.26" font-family="Times,serif" font-size="14.00">Notification</text>
</a>
</g>
</g>
<!-- node_2&#45;&gt;node_7 -->
<g id="edge2" class="edge">
<title>node_2&#45;&gt;node_7</title>
<path fill="none" stroke="black" d="M200.1,-493.46C239.14,-493.46 299.28,-493.46 341.71,-493.46"/>
<polygon fill="black" stroke="black" points="341.82,-496.96 351.82,-493.46 341.82,-489.96 341.82,-496.96"/>
</g>
<!-- node_13 -->
<g id="node19" class="node">
<title>node_13</title>
<g id="a_node19"><a xlink:href="https://icml.cc" xlink:title="Conference on Neural Information Processing Systems" target="_blank">
<polygon fill="none" stroke="black" points="550,-583.46 469,-583.46 469,-545.46 550,-545.46 550,-583.46"/>
<text text-anchor="middle" x="509.5" y="-568.26" font-family="Times,serif" font-size="14.00">ICML</text>
<text text-anchor="middle" x="509.5" y="-553.26" font-family="Times,serif" font-size="14.00">Notification</text>
</a>
</g>
</g>
<!-- node_3&#45;&gt;node_13 -->
<g id="edge4" class="edge">
<title>node_3&#45;&gt;node_13</title>
<path fill="none" stroke="black" d="M200.19,-551.16C263.67,-553.9 388.9,-559.3 458.64,-562.31"/>
<polygon fill="black" stroke="black" points="458.78,-565.82 468.92,-562.76 459.08,-558.83 458.78,-565.82"/>
</g>
<!-- order_node_3 -->
<!-- order_node_2&#45;&gt;order_node_3 -->
<!-- node_4 -->
<g id="node8" class="node">
<title>node_4</title>
<g id="a_node8"><a xlink:href="http://auai.org/uai2017/index.php" xlink:title="Conference on Uncertainty in Artificial Intelligence" target="_blank">
<polygon fill="none" stroke="black" points="316,-149.46 236,-149.46 236,-111.46 316,-111.46 316,-149.46"/>
<text text-anchor="middle" x="276" y="-134.26" font-family="Times,serif" font-size="14.00">UAI</text>
<text text-anchor="middle" x="276" y="-119.26" font-family="Times,serif" font-size="14.00">Submission</text>
</a>
</g>
</g>
<!-- node_16 -->
<g id="node23" class="node">
<title>node_16</title>
<g id="a_node23"><a xlink:href="http://auai.org/uai2017/index.php" xlink:title="Conference on Uncertainty in Artificial Intelligence" target="_blank">
<polygon fill="none" stroke="black" points="667,-132.46 586,-132.46 586,-94.46 667,-94.46 667,-132.46"/>
<text text-anchor="middle" x="626.5" y="-117.26" font-family="Times,serif" font-size="14.00">UAI</text>
<text text-anchor="middle" x="626.5" y="-102.26" font-family="Times,serif" font-size="14.00">Notification</text>
</a>
</g>
</g>
<!-- node_4&#45;&gt;node_16 -->
<g id="edge5" class="edge">
<title>node_4&#45;&gt;node_16</title>
<path fill="none" stroke="black" d="M316.3,-128.55C379.96,-125.44 505.55,-119.32 575.49,-115.9"/>
<polygon fill="black" stroke="black" points="575.99,-119.38 585.81,-115.4 575.65,-112.39 575.99,-119.38"/>
</g>
<!-- node_5 -->
<g id="node9" class="node">
<title>node_5</title>
<g id="a_node9"><a xlink:href="http://www.iros.org/" xlink:title="International Conference on Intelligent Robots and Systems" target="_blank">
<polygon fill="none" stroke="black" points="316,-205.46 236,-205.46 236,-167.46 316,-167.46 316,-205.46"/>
<text text-anchor="middle" x="276" y="-190.26" font-family="Times,serif" font-size="14.00">IROS</text>
<text text-anchor="middle" x="276" y="-175.26" font-family="Times,serif" font-size="14.00">Submission</text>
</a>
</g>
</g>
<!-- node_17 -->
<g id="node24" class="node">
<title>node_17</title>
<g id="a_node24"><a xlink:href="http://www.iros.org/" xlink:title="International Conference on Intelligent Robots and Systems" target="_blank">
<polygon fill="none" stroke="black" points="667,-188.46 586,-188.46 586,-150.46 667,-150.46 667,-188.46"/>
<text text-anchor="middle" x="626.5" y="-173.26" font-family="Times,serif" font-size="14.00">IROS</text>
<text text-anchor="middle" x="626.5" y="-158.26" font-family="Times,serif" font-size="14.00">Notification</text>
</a>
</g>
</g>
<!-- node_5&#45;&gt;node_17 -->
<g id="edge6" class="edge">
<title>node_5&#45;&gt;node_17</title>
<path fill="none" stroke="black" d="M316.3,-184.55C379.96,-181.44 505.55,-175.32 575.49,-171.9"/>
<polygon fill="black" stroke="black" points="575.99,-175.38 585.81,-171.4 575.65,-168.39 575.99,-175.38"/>
</g>
<!-- node_6 -->
<g id="node10" class="node">
<title>node_6</title>
<g id="a_node10"><a xlink:href="https://www.thecvf.com" xlink:title="International Conference on Computer Vision" target="_blank">
<polygon fill="none" stroke="black" points="316,-92.96 236,-92.96 236,-39.96 316,-39.96 316,-92.96"/>
<text text-anchor="middle" x="276" y="-77.76" font-family="Times,serif" font-size="14.00">ICCV</text>
<text text-anchor="middle" x="276" y="-62.76" font-family="Times,serif" font-size="14.00">Abstracts</text>
<text text-anchor="middle" x="276" y="-47.76" font-family="Times,serif" font-size="14.00">Submission</text>
</a>
</g>
</g>
<!-- node_20 -->
<g id="node28" class="node">
<title>node_20</title>
<g id="a_node28"><a xlink:href="https://www.thecvf.com" xlink:title="International Conference on Computer Vision" target="_blank">
<polygon fill="none" stroke="black" points="784,-299.46 703,-299.46 703,-261.46 784,-261.46 784,-299.46"/>
<text text-anchor="middle" x="743.5" y="-284.26" font-family="Times,serif" font-size="14.00">ICCV</text>
<text text-anchor="middle" x="743.5" y="-269.26" font-family="Times,serif" font-size="14.00">Notification</text>
</a>
</g>
</g>
<!-- node_6&#45;&gt;node_20 -->
<g id="edge7" class="edge">
<title>node_6&#45;&gt;node_20</title>
<path fill="none" stroke="black" d="M316.21,-54.86C393.47,-34.57 567.21,-2.01 675,-82.46 728.24,-122.2 739.86,-206.24 742.15,-250.98"/>
<polygon fill="black" stroke="black" points="738.66,-251.35 742.55,-261.2 745.66,-251.07 738.66,-251.35"/>
</g>
<!-- order_node_4 -->
<!-- order_node_3&#45;&gt;order_node_4 -->
<!-- node_8 -->
<g id="node13" class="node">
<title>node_8</title>
<g id="a_node13"><a xlink:href="http://www.ecai2016.org/" xlink:title="European Conference on Artificial Intelligence" target="_blank">
<polygon fill="none" stroke="black" points="432.5,-363.46 352.5,-363.46 352.5,-325.46 432.5,-325.46 432.5,-363.46"/>
<text text-anchor="middle" x="392.5" y="-348.26" font-family="Times,serif" font-size="14.00">ECAI</text>
<text text-anchor="middle" x="392.5" y="-333.26" font-family="Times,serif" font-size="14.00">Submission</text>
</a>
</g>
</g>
<!-- node_14 -->
<g id="node21" class="node">
<title>node_14</title>
<g id="a_node21"><a xlink:href="http://www.ecai2016.org/" xlink:title="European Conference on Artificial Intelligence" target="_blank">
<polygon fill="none" stroke="black" points="667,-356.46 586,-356.46 586,-318.46 667,-318.46 667,-356.46"/>
<text text-anchor="middle" x="626.5" y="-341.26" font-family="Times,serif" font-size="14.00">ECAI</text>
<text text-anchor="middle" x="626.5" y="-326.26" font-family="Times,serif" font-size="14.00">Notification</text>
</a>
</g>
</g>
<!-- node_8&#45;&gt;node_14 -->
<g id="edge8" class="edge">
<title>node_8&#45;&gt;node_14</title>
<path fill="none" stroke="black" d="M432.59,-343.28C471.96,-342.1 532.84,-340.26 575.66,-338.97"/>
<polygon fill="black" stroke="black" points="575.97,-342.46 585.86,-338.66 575.76,-335.46 575.97,-342.46"/>
</g>
<!-- node_9 -->
<g id="node14" class="node">
<title>node_9</title>
<g id="a_node14"><a xlink:href="http://wibih.unomaha.edu/wi" xlink:title="International Conference on Intelligent Agent Technology" target="_blank">
<polygon fill="none" stroke="black" points="432.5,-307.46 352.5,-307.46 352.5,-269.46 432.5,-269.46 432.5,-307.46"/>
<text text-anchor="middle" x="392.5" y="-292.26" font-family="Times,serif" font-size="14.00">IAT</text>
<text text-anchor="middle" x="392.5" y="-277.26" font-family="Times,serif" font-size="14.00">Submission</text>
</a>
</g>
</g>
<!-- node_15 -->
<g id="node22" class="node">
<title>node_15</title>
<g id="a_node22"><a xlink:href="http://wibih.unomaha.edu/wi" xlink:title="International Conference on Intelligent Agent Technology" target="_blank">
<polygon fill="none" stroke="black" points="667,-300.46 586,-300.46 586,-262.46 667,-262.46 667,-300.46"/>
<text text-anchor="middle" x="626.5" y="-285.26" font-family="Times,serif" font-size="14.00">IAT</text>
<text text-anchor="middle" x="626.5" y="-270.26" font-family="Times,serif" font-size="14.00">Notification</text>
</a>
</g>
</g>
<!-- node_9&#45;&gt;node_15 -->
<g id="edge9" class="edge">
<title>node_9&#45;&gt;node_15</title>
<path fill="none" stroke="black" d="M432.59,-287.28C471.96,-286.1 532.84,-284.26 575.66,-282.97"/>
<polygon fill="black" stroke="black" points="575.97,-286.46 585.86,-282.66 575.76,-279.46 575.97,-286.46"/>
</g>
<!-- node_10 -->
<g id="node15" class="node">
<title>node_10</title>
<g id="a_node15"><a xlink:href="http://software.imdea.org/Conferences/ICLP2016/" xlink:title="International Conference on Logic Programming" target="_blank">
<polygon fill="none" stroke="black" points="432.5,-250.96 352.5,-250.96 352.5,-197.96 432.5,-197.96 432.5,-250.96"/>
<text text-anchor="middle" x="392.5" y="-235.76" font-family="Times,serif" font-size="14.00">ICLP</text>
<text text-anchor="middle" x="392.5" y="-220.76" font-family="Times,serif" font-size="14.00">Abstracts</text>
<text text-anchor="middle" x="392.5" y="-205.76" font-family="Times,serif" font-size="14.00">Submission</text>
</a>
</g>
</g>
<!-- node_18 -->
<g id="node25" class="node">
<title>node_18</title>
<g id="a_node25"><a xlink:href="http://software.imdea.org/Conferences/ICLP2016/" xlink:title="International Conference on Logic Programming" target="_blank">
<polygon fill="none" stroke="black" points="667,-244.46 586,-244.46 586,-206.46 667,-206.46 667,-244.46"/>
<text text-anchor="middle" x="626.5" y="-229.26" font-family="Times,serif" font-size="14.00">ICLP</text>
<text text-anchor="middle" x="626.5" y="-214.26" font-family="Times,serif" font-size="14.00">Notification</text>
</a>
</g>
</g>
<!-- node_10&#45;&gt;node_18 -->
<g id="edge10" class="edge">
<title>node_10&#45;&gt;node_18</title>
<path fill="none" stroke="black" d="M432.59,-224.63C471.96,-224.8 532.84,-225.06 575.66,-225.25"/>
<polygon fill="black" stroke="black" points="575.84,-228.75 585.86,-225.29 575.87,-221.75 575.84,-228.75"/>
</g>
<!-- node_11 -->
<g id="node16" class="node">
<title>node_11</title>
<g id="a_node16"><a xlink:href="https://bmvc2020-conference.com" xlink:title="British Machine Vision Conference" target="_blank">
<polygon fill="none" stroke="black" points="432.5,-434.96 352.5,-434.96 352.5,-381.96 432.5,-381.96 432.5,-434.96"/>
<text text-anchor="middle" x="392.5" y="-419.76" font-family="Times,serif" font-size="14.00">BMVC</text>
<text text-anchor="middle" x="392.5" y="-404.76" font-family="Times,serif" font-size="14.00">Abstracts</text>
<text text-anchor="middle" x="392.5" y="-389.76" font-family="Times,serif" font-size="14.00">Submission</text>
</a>
</g>
</g>
<!-- node_21 -->
<g id="node29" class="node">
<title>node_21</title>
<g id="a_node29"><a xlink:href="https://bmvc2020-conference.com" xlink:title="British Machine Vision Conference" target="_blank">
<polygon fill="none" stroke="black" points="784,-448.46 703,-448.46 703,-410.46 784,-410.46 784,-448.46"/>
<text text-anchor="middle" x="743.5" y="-433.26" font-family="Times,serif" font-size="14.00">BMVC</text>
<text text-anchor="middle" x="743.5" y="-418.26" font-family="Times,serif" font-size="14.00">Notification</text>
</a>
</g>
</g>
<!-- node_11&#45;&gt;node_21 -->
<g id="edge11" class="edge">
<title>node_11&#45;&gt;node_21</title>
<path fill="none" stroke="black" d="M432.52,-410.81C496.22,-414.64 622.46,-422.24 692.59,-426.46"/>
<polygon fill="black" stroke="black" points="692.74,-429.98 702.93,-427.08 693.16,-422.99 692.74,-429.98"/>
</g>
<!-- order_node_5 -->
<!-- order_node_4&#45;&gt;order_node_5 -->
<!-- node_12 -->
<g id="node18" class="node">
<title>node_12</title>
<g id="a_node18"><a xlink:href="https://neurips.cc" xlink:title="Conference on Neural Information Processing Systems" target="_blank">
<polygon fill="none" stroke="black" points="549.5,-526.96 469.5,-526.96 469.5,-473.96 549.5,-473.96 549.5,-526.96"/>
<text text-anchor="middle" x="509.5" y="-511.76" font-family="Times,serif" font-size="14.00">NeurIPS</text>
<text text-anchor="middle" x="509.5" y="-496.76" font-family="Times,serif" font-size="14.00">Abstracts</text>
<text text-anchor="middle" x="509.5" y="-481.76" font-family="Times,serif" font-size="14.00">Submission</text>
</a>
</g>
</g>
<!-- node_27 -->
<g id="node37" class="node">
<title>node_27</title>
<g id="a_node37"><a xlink:href="https://neurips.cc" xlink:title="Conference on Neural Information Processing Systems" target="_blank">
<polygon fill="none" stroke="black" points="1018,-456.46 937,-456.46 937,-418.46 1018,-418.46 1018,-456.46"/>
<text text-anchor="middle" x="977.5" y="-441.26" font-family="Times,serif" font-size="14.00">NeurIPS</text>
<text text-anchor="middle" x="977.5" y="-426.26" font-family="Times,serif" font-size="14.00">Notification</text>
</a>
</g>
</g>
<!-- node_12&#45;&gt;node_27 -->
<g id="edge12" class="edge">
<title>node_12&#45;&gt;node_27</title>
<path fill="none" stroke="black" d="M549.91,-500.36C604.56,-499.71 706.34,-496.61 792,-483.46 838.38,-476.34 890.13,-462.95 927,-452.44"/>
<polygon fill="black" stroke="black" points="928.34,-455.7 936.98,-449.56 926.4,-448.97 928.34,-455.7"/>
</g>
<!-- order_node_6 -->
<!-- order_node_5&#45;&gt;order_node_6 -->
<!-- order_node_7 -->
<!-- order_node_6&#45;&gt;order_node_7 -->
<!-- node_19 -->
<g id="node27" class="node">
<title>node_19</title>
<g id="a_node27"><a xlink:href="http://sbgames.org/" xlink:title="Simposio Brasileiro de Games e Entretenimento Digital" target="_blank">
<polygon fill="none" stroke="black" points="783.5,-391.96 703.5,-391.96 703.5,-338.96 783.5,-338.96 783.5,-391.96"/>
<text text-anchor="middle" x="743.5" y="-376.76" font-family="Times,serif" font-size="14.00">SBGames</text>
<text text-anchor="middle" x="743.5" y="-361.76" font-family="Times,serif" font-size="14.00">Abstracts</text>
<text text-anchor="middle" x="743.5" y="-346.76" font-family="Times,serif" font-size="14.00">Submission</text>
</a>
</g>
</g>
<!-- node_22 -->
<g id="node31" class="node">
<title>node_22</title>
<g id="a_node31"><a xlink:href="http://sbgames.org/" xlink:title="Simposio Brasileiro de Games e Entretenimento Digital" target="_blank">
<polygon fill="none" stroke="black" points="901,-384.46 820,-384.46 820,-346.46 901,-346.46 901,-384.46"/>
<text text-anchor="middle" x="860.5" y="-369.26" font-family="Times,serif" font-size="14.00">SBGames</text>
<text text-anchor="middle" x="860.5" y="-354.26" font-family="Times,serif" font-size="14.00">Notification</text>
</a>
</g>
</g>
<!-- node_19&#45;&gt;node_22 -->
<g id="edge13" class="edge">
<title>node_19&#45;&gt;node_22</title>
<path fill="none" stroke="black" d="M783.75,-365.46C792.08,-365.46 800.97,-365.46 809.63,-365.46"/>
<polygon fill="black" stroke="black" points="809.64,-368.96 819.64,-365.46 809.64,-361.96 809.64,-368.96"/>
</g>
<!-- order_node_8 -->
<!-- order_node_7&#45;&gt;order_node_8 -->
<!-- order_node_9 -->
<!-- order_node_8&#45;&gt;order_node_9 -->
<!-- node_23 -->
<g id="node33" class="node">
<title>node_23</title>
<g id="a_node33"><a xlink:href="http://www.icra2017.org/" xlink:title="International Conference on Robotics and Automation" target="_blank">
<polygon fill="none" stroke="black" points="1017.5,-180.46 937.5,-180.46 937.5,-142.46 1017.5,-142.46 1017.5,-180.46"/>
<text text-anchor="middle" x="977.5" y="-165.26" font-family="Times,serif" font-size="14.00">ICRA</text>
<text text-anchor="middle" x="977.5" y="-150.26" font-family="Times,serif" font-size="14.00">Submission</text>
</a>
</g>
</g>
<!-- node_38 -->
<g id="node52" class="node">
<title>node_38</title>
<g id="a_node52"><a xlink:href="http://www.icra2017.org/" xlink:title="International Conference on Robotics and Automation" target="_blank">
<polygon fill="none" stroke="black" points="1460.6,-74.46 1379.6,-74.46 1379.6,-36.46 1460.6,-36.46 1460.6,-74.46"/>
<text text-anchor="middle" x="1420.1" y="-59.26" font-family="Times,serif" font-size="14.00">ICRA</text>
<text text-anchor="middle" x="1420.1" y="-44.26" font-family="Times,serif" font-size="14.00">Notification</text>
</a>
</g>
</g>
<!-- node_23&#45;&gt;node_38 -->
<g id="edge14" class="edge">
<title>node_23&#45;&gt;node_38</title>
<path fill="none" stroke="black" d="M993.74,-142.34C1022.49,-108.02 1088.55,-37.05 1163,-10.46 1232.64,14.4 1318.01,-10.98 1370.47,-32.48"/>
<polygon fill="black" stroke="black" points="1369.3,-35.79 1379.87,-36.44 1372.02,-29.34 1369.3,-35.79"/>
</g>
<!-- node_24 -->
<g id="node34" class="node">
<title>node_24</title>
<g id="a_node34"><a xlink:href="http://www.sigapp.org/sac/" xlink:title="Symposium On Applied Computing" target="_blank">
<polygon fill="none" stroke="black" points="1017.5,-322.96 937.5,-322.96 937.5,-269.96 1017.5,-269.96 1017.5,-322.96"/>
<text text-anchor="middle" x="977.5" y="-307.76" font-family="Times,serif" font-size="14.00">SAC</text>
<text text-anchor="middle" x="977.5" y="-292.76" font-family="Times,serif" font-size="14.00">Abstracts</text>
<text text-anchor="middle" x="977.5" y="-277.76" font-family="Times,serif" font-size="14.00">Submission</text>
</a>
</g>
</g>
<!-- node_31 -->
<g id="node43" class="node">
<title>node_31</title>
<g id="a_node43"><a xlink:href="http://www.sigapp.org/sac/" xlink:title="Symposium On Applied Computing" target="_blank">
<polygon fill="none" stroke="black" points="1252,-315.46 1171,-315.46 1171,-277.46 1252,-277.46 1252,-315.46"/>
<text text-anchor="middle" x="1211.5" y="-300.26" font-family="Times,serif" font-size="14.00">SAC</text>
<text text-anchor="middle" x="1211.5" y="-285.26" font-family="Times,serif" font-size="14.00">Notification</text>
</a>
</g>
</g>
<!-- node_24&#45;&gt;node_31 -->
<g id="edge15" class="edge">
<title>node_24&#45;&gt;node_31</title>
<path fill="none" stroke="black" d="M1017.59,-296.46C1056.96,-296.46 1117.84,-296.46 1160.66,-296.46"/>
<polygon fill="black" stroke="black" points="1160.86,-299.96 1170.86,-296.46 1160.86,-292.96 1160.86,-299.96"/>
</g>
<!-- node_25 -->
<g id="node35" class="node">
<title>node_25</title>
<g id="a_node35"><a xlink:href="http://www.aaai.org/Conferences/conferences.php" xlink:title="Association for the Advancement of Artificial Intelligence" target="_blank">
<polygon fill="none" stroke="black" points="1017.5,-251.96 937.5,-251.96 937.5,-198.96 1017.5,-198.96 1017.5,-251.96"/>
<text text-anchor="middle" x="977.5" y="-236.76" font-family="Times,serif" font-size="14.00">AAAI</text>
<text text-anchor="middle" x="977.5" y="-221.76" font-family="Times,serif" font-size="14.00">Abstracts</text>
<text text-anchor="middle" x="977.5" y="-206.76" font-family="Times,serif" font-size="14.00">Submission</text>
</a>
</g>
</g>
<!-- node_30 -->
<g id="node42" class="node">
<title>node_30</title>
<g id="a_node42"><a xlink:href="http://www.aaai.org/Conferences/conferences.php" xlink:title="Association for the Advancement of Artificial Intelligence" target="_blank">
<polygon fill="none" stroke="black" points="1252,-116.46 1171,-116.46 1171,-78.46 1252,-78.46 1252,-116.46"/>
<text text-anchor="middle" x="1211.5" y="-101.26" font-family="Times,serif" font-size="14.00">AAAI</text>
<text text-anchor="middle" x="1211.5" y="-86.26" font-family="Times,serif" font-size="14.00">Notification</text>
</a>
</g>
</g>
<!-- node_25&#45;&gt;node_30 -->
<g id="edge16" class="edge">
<title>node_25&#45;&gt;node_30</title>
<path fill="none" stroke="black" d="M1017.59,-203.9C1058.95,-181.08 1124.03,-145.17 1166.99,-121.47"/>
<polygon fill="black" stroke="black" points="1168.74,-124.5 1175.8,-116.61 1165.35,-118.38 1168.74,-124.5"/>
</g>
<!-- node_26 -->
<g id="node36" class="node">
<title>node_26</title>
<g id="a_node36"><a xlink:href="http://eumas-at2016.webs.upv.es/EUMAS2016.html" xlink:title="European Conference on Multi&#45;Agent Systems" target="_blank">
<polygon fill="none" stroke="black" points="1017.5,-400.46 937.5,-400.46 937.5,-362.46 1017.5,-362.46 1017.5,-400.46"/>
<text text-anchor="middle" x="977.5" y="-385.26" font-family="Times,serif" font-size="14.00">EUMAS</text>
<text text-anchor="middle" x="977.5" y="-370.26" font-family="Times,serif" font-size="14.00">Submission</text>
</a>
</g>
</g>
<!-- node_28 -->
<g id="node39" class="node">
<title>node_28</title>
<g id="a_node39"><a xlink:href="http://eumas-at2016.webs.upv.es/EUMAS2016.html" xlink:title="European Conference on Multi&#45;Agent Systems" target="_blank">
<polygon fill="none" stroke="black" points="1135,-444.46 1054,-444.46 1054,-406.46 1135,-406.46 1135,-444.46"/>
<text text-anchor="middle" x="1094.5" y="-429.26" font-family="Times,serif" font-size="14.00">EUMAS</text>
<text text-anchor="middle" x="1094.5" y="-414.26" font-family="Times,serif" font-size="14.00">Notification</text>
</a>
</g>
</g>
<!-- node_26&#45;&gt;node_28 -->
<g id="edge17" class="edge">
<title>node_26&#45;&gt;node_28</title>
<path fill="none" stroke="black" d="M1017.75,-396.48C1026.26,-399.74 1035.36,-403.22 1044.2,-406.6"/>
<polygon fill="black" stroke="black" points="1043.05,-409.91 1053.64,-410.21 1045.55,-403.37 1043.05,-409.91"/>
</g>
<!-- order_node_10 -->
<!-- order_node_9&#45;&gt;order_node_10 -->
<!-- node_29 -->
<g id="node40" class="node">
<title>node_29</title>
<g id="a_node40"><a xlink:href="http://www.icaart.org/" xlink:title="International Conference on Agents and Artificial Intelligence" target="_blank">
<polygon fill="none" stroke="black" points="1134.5,-366.46 1054.5,-366.46 1054.5,-328.46 1134.5,-328.46 1134.5,-366.46"/>
<text text-anchor="middle" x="1094.5" y="-351.26" font-family="Times,serif" font-size="14.00">ICAART</text>
<text text-anchor="middle" x="1094.5" y="-336.26" font-family="Times,serif" font-size="14.00">Submission</text>
</a>
</g>
</g>
<!-- node_36 -->
<g id="node48" class="node">
<title>node_36</title>
<g id="a_node48"><a xlink:href="http://www.icaart.org/" xlink:title="International Conference on Agents and Artificial Intelligence" target="_blank">
<polygon fill="none" stroke="black" points="1252,-371.46 1171,-371.46 1171,-333.46 1252,-333.46 1252,-371.46"/>
<text text-anchor="middle" x="1211.5" y="-356.26" font-family="Times,serif" font-size="14.00">ICAART</text>
<text text-anchor="middle" x="1211.5" y="-341.26" font-family="Times,serif" font-size="14.00">Notification</text>
</a>
</g>
</g>
<!-- node_29&#45;&gt;node_36 -->
<g id="edge18" class="edge">
<title>node_29&#45;&gt;node_36</title>
<path fill="none" stroke="black" d="M1134.75,-349.17C1143.08,-349.53 1151.97,-349.92 1160.63,-350.3"/>
<polygon fill="black" stroke="black" points="1160.5,-353.79 1170.64,-350.73 1160.8,-346.8 1160.5,-353.79"/>
</g>
<!-- order_node_11 -->
<!-- order_node_10&#45;&gt;order_node_11 -->
<!-- node_32 -->
<g id="node44" class="node">
<title>node_32</title>
<g id="a_node44"><a xlink:href="http://www.icaps-conference.org/" xlink:title="International Conference on Automated Planning and Scheduling" target="_blank">
<polygon fill="none" stroke="black" points="1251.5,-258.96 1171.5,-258.96 1171.5,-205.96 1251.5,-205.96 1251.5,-258.96"/>
<text text-anchor="middle" x="1211.5" y="-243.76" font-family="Times,serif" font-size="14.00">ICAPS</text>
<text text-anchor="middle" x="1211.5" y="-228.76" font-family="Times,serif" font-size="14.00">Abstracts</text>
<text text-anchor="middle" x="1211.5" y="-213.76" font-family="Times,serif" font-size="14.00">Submission</text>
</a>
</g>
</g>
<!-- node_39 -->
<g id="node53" class="node">
<title>node_39</title>
<g id="a_node53"><a xlink:href="http://www.icaps-conference.org/" xlink:title="International Conference on Automated Planning and Scheduling" target="_blank">
<polygon fill="none" stroke="black" points="1460.6,-242.46 1379.6,-242.46 1379.6,-204.46 1460.6,-204.46 1460.6,-242.46"/>
<text text-anchor="middle" x="1420.1" y="-227.26" font-family="Times,serif" font-size="14.00">ICAPS</text>
<text text-anchor="middle" x="1420.1" y="-212.26" font-family="Times,serif" font-size="14.00">Notification</text>
</a>
</g>
</g>
<!-- node_32&#45;&gt;node_39 -->
<g id="edge19" class="edge">
<title>node_32&#45;&gt;node_39</title>
<path fill="none" stroke="black" d="M1251.85,-230.75C1285.2,-229.3 1333.22,-227.21 1369.25,-225.64"/>
<polygon fill="black" stroke="black" points="1369.71,-229.12 1379.55,-225.19 1369.41,-222.13 1369.71,-229.12"/>
</g>
<!-- node_33 -->
<g id="node45" class="node">
<title>node_33</title>
<g id="a_node45"><a xlink:href="http://www.ifaamas.org/" xlink:title="International Conference on Autonomous Agents and Multiagent Systems" target="_blank">
<polygon fill="none" stroke="black" points="1251.5,-187.96 1171.5,-187.96 1171.5,-134.96 1251.5,-134.96 1251.5,-187.96"/>
<text text-anchor="middle" x="1211.5" y="-172.76" font-family="Times,serif" font-size="14.00">AAMAS</text>
<text text-anchor="middle" x="1211.5" y="-157.76" font-family="Times,serif" font-size="14.00">Abstracts</text>
<text text-anchor="middle" x="1211.5" y="-142.76" font-family="Times,serif" font-size="14.00">Submission</text>
</a>
</g>
</g>
<!-- node_40 -->
<g id="node54" class="node">
<title>node_40</title>
<g id="a_node54"><a xlink:href="http://www.ifaamas.org/" xlink:title="International Conference on Autonomous Agents and Multiagent Systems" target="_blank">
<polygon fill="none" stroke="black" points="1460.6,-186.46 1379.6,-186.46 1379.6,-148.46 1460.6,-148.46 1460.6,-186.46"/>
<text text-anchor="middle" x="1420.1" y="-171.26" font-family="Times,serif" font-size="14.00">AAMAS</text>
<text text-anchor="middle" x="1420.1" y="-156.26" font-family="Times,serif" font-size="14.00">Notification</text>
</a>
</g>
</g>
<!-- node_33&#45;&gt;node_40 -->
<g id="edge20" class="edge">
<title>node_33&#45;&gt;node_40</title>
<path fill="none" stroke="black" d="M1251.85,-162.61C1285.2,-163.58 1333.22,-164.97 1369.25,-166.02"/>
<polygon fill="black" stroke="black" points="1369.45,-169.52 1379.55,-166.32 1369.65,-162.53 1369.45,-169.52"/>
</g>
<!-- node_34 -->
<g id="node46" class="node">
<title>node_34</title>
<g id="a_node46"><a xlink:href="http://www.kr.org/" xlink:title="International Conference on Principles of Knowledge Representation and Reasoning" target="_blank">
<polygon fill="none" stroke="black" points="1251.5,-534.96 1171.5,-534.96 1171.5,-481.96 1251.5,-481.96 1251.5,-534.96"/>
<text text-anchor="middle" x="1211.5" y="-519.76" font-family="Times,serif" font-size="14.00">KR</text>
<text text-anchor="middle" x="1211.5" y="-504.76" font-family="Times,serif" font-size="14.00">Abstracts</text>
<text text-anchor="middle" x="1211.5" y="-489.76" font-family="Times,serif" font-size="14.00">Submission</text>
</a>
</g>
</g>
<!-- node_42 -->
<g id="node57" class="node">
<title>node_42</title>
<g id="a_node57"><a xlink:href="http://www.kr.org/" xlink:title="International Conference on Principles of Knowledge Representation and Reasoning" target="_blank">
<polygon fill="none" stroke="black" points="1577.6,-512.46 1496.6,-512.46 1496.6,-474.46 1577.6,-474.46 1577.6,-512.46"/>
<text text-anchor="middle" x="1537.1" y="-497.26" font-family="Times,serif" font-size="14.00">KR</text>
<text text-anchor="middle" x="1537.1" y="-482.26" font-family="Times,serif" font-size="14.00">Notification</text>
</a>
</g>
</g>
<!-- node_34&#45;&gt;node_42 -->
<g id="edge21" class="edge">
<title>node_34&#45;&gt;node_42</title>
<path fill="none" stroke="black" d="M1251.53,-506.65C1310.29,-503.93 1421.45,-498.78 1486.08,-495.78"/>
<polygon fill="black" stroke="black" points="1486.59,-499.26 1496.42,-495.3 1486.27,-492.27 1486.59,-499.26"/>
</g>
<!-- node_35 -->
<g id="node47" class="node">
<title>node_35</title>
<g id="a_node47"><a xlink:href="http://www.flairs.com/" xlink:title="Florida Artificial Intelligence Research Society" target="_blank">
<polygon fill="none" stroke="black" points="1251.5,-60.46 1171.5,-60.46 1171.5,-22.46 1251.5,-22.46 1251.5,-60.46"/>
<text text-anchor="middle" x="1211.5" y="-45.26" font-family="Times,serif" font-size="14.00">FLAIRS</text>
<text text-anchor="middle" x="1211.5" y="-30.26" font-family="Times,serif" font-size="14.00">Submission</text>
</a>
</g>
</g>
<!-- node_41 -->
<g id="node55" class="node">
<title>node_41</title>
<g id="a_node55"><a xlink:href="http://www.flairs.com/" xlink:title="Florida Artificial Intelligence Research Society" target="_blank">
<polygon fill="none" stroke="black" points="1460.6,-130.46 1379.6,-130.46 1379.6,-92.46 1460.6,-92.46 1460.6,-130.46"/>
<text text-anchor="middle" x="1420.1" y="-115.26" font-family="Times,serif" font-size="14.00">FLAIRS</text>
<text text-anchor="middle" x="1420.1" y="-100.26" font-family="Times,serif" font-size="14.00">Notification</text>
</a>
</g>
</g>
<!-- node_35&#45;&gt;node_41 -->
<g id="edge22" class="edge">
<title>node_35&#45;&gt;node_41</title>
<path fill="none" stroke="black" d="M1251.85,-54.8C1285.34,-66.14 1333.63,-82.5 1369.72,-94.73"/>
<polygon fill="black" stroke="black" points="1368.95,-98.17 1379.55,-98.06 1371.2,-91.54 1368.95,-98.17"/>
</g>
<!-- node_37 -->
<g id="node49" class="node">
<title>node_37</title>
<g id="a_node49"><a xlink:href="https://www.thecvf.com" xlink:title="Conference on Computer Vision and Pattern Recognition" target="_blank">
<polygon fill="none" stroke="black" points="1251.5,-463.96 1171.5,-463.96 1171.5,-410.96 1251.5,-410.96 1251.5,-463.96"/>
<text text-anchor="middle" x="1211.5" y="-448.76" font-family="Times,serif" font-size="14.00">CVPR</text>
<text text-anchor="middle" x="1211.5" y="-433.76" font-family="Times,serif" font-size="14.00">Abstracts</text>
<text text-anchor="middle" x="1211.5" y="-418.76" font-family="Times,serif" font-size="14.00">Submission</text>
</a>
</g>
</g>
<!-- node_43 -->
<g id="node58" class="node">
<title>node_43</title>
<g id="a_node58"><a xlink:href="https://www.thecvf.com" xlink:title="Conference on Computer Vision and Pattern Recognition" target="_blank">
<polygon fill="none" stroke="black" points="1577.6,-456.46 1496.6,-456.46 1496.6,-418.46 1577.6,-418.46 1577.6,-456.46"/>
<text text-anchor="middle" x="1537.1" y="-441.26" font-family="Times,serif" font-size="14.00">CVPR</text>
<text text-anchor="middle" x="1537.1" y="-426.26" font-family="Times,serif" font-size="14.00">Notification</text>
</a>
</g>
</g>
<!-- node_37&#45;&gt;node_43 -->
<g id="edge23" class="edge">
<title>node_37&#45;&gt;node_43</title>
<path fill="none" stroke="black" d="M1251.53,-437.46C1310.29,-437.46 1421.45,-437.46 1486.08,-437.46"/>
<polygon fill="black" stroke="black" points="1486.42,-440.96 1496.42,-437.46 1486.42,-433.96 1486.42,-440.96"/>
</g>
<!-- order_node_12 -->
<!-- order_node_11&#45;&gt;order_node_12 -->
<!-- order_node_13 -->
<!-- order_node_12&#45;&gt;order_node_13 -->
</g>
</svg>
