<?xml version="1.0" encoding="UTF-8" standalone="no"?>
<!DOCTYPE svg PUBLIC "-//W3C//DTD SVG 1.1//EN"
 "http://www.w3.org/Graphics/SVG/1.1/DTD/svg11.dtd">
<!-- Generated by graphviz version 2.46.0 (20210118.1747)
 -->
<!-- Title: conferences Pages: 1 -->
<svg width="1601pt" height="578pt"
 viewBox="0.00 0.00 1600.60 578.07" xmlns="http://www.w3.org/2000/svg" xmlns:xlink="http://www.w3.org/1999/xlink">
<g id="graph0" class="graph" transform="scale(1 1) rotate(0) translate(4 574.07)">
<title>conferences</title>
<polygon fill="white" stroke="transparent" points="-4,4 -4,-574.07 1596.6,-574.07 1596.6,4 -4,4"/>
<g id="clust12" class="cluster">
<title>cluster_11</title>
<polygon fill="none" stroke="black" points="1279,-260.07 1279,-303.07 1351.6,-303.07 1351.6,-260.07 1279,-260.07"/>
<text text-anchor="middle" x="1315.3" y="-287.87" font-family="Times,serif" font-size="14.00">December</text>
</g>
<g id="clust13" class="cluster">
<title>cluster_12</title>
<polygon fill="none" stroke="black" points="1370.6,-35.07 1370.6,-302.07 1467.6,-302.07 1467.6,-35.07 1370.6,-35.07"/>
<text text-anchor="middle" x="1419.1" y="-286.87" font-family="Times,serif" font-size="14.00">January</text>
</g>
<g id="clust14" class="cluster">
<title>cluster_13</title>
<polygon fill="none" stroke="black" points="1487.6,-267.07 1487.6,-366.07 1584.6,-366.07 1584.6,-267.07 1487.6,-267.07"/>
<text text-anchor="middle" x="1536.1" y="-350.87" font-family="Times,serif" font-size="14.00">February</text>
</g>
<g id="clust1" class="cluster">
<title>cluster_0</title>
<polygon fill="none" stroke="black" points="8,-327.07 8,-482.07 92,-482.07 92,-327.07 8,-327.07"/>
<text text-anchor="middle" x="50" y="-466.87" font-family="Times,serif" font-size="14.00">January</text>
</g>
<g id="clust2" class="cluster">
<title>cluster_1</title>
<polygon fill="none" stroke="black" points="112,-327.07 112,-482.07 208,-482.07 208,-327.07 112,-327.07"/>
<text text-anchor="middle" x="160" y="-466.87" font-family="Times,serif" font-size="14.00">February</text>
</g>
<g id="clust3" class="cluster">
<title>cluster_2</title>
<polygon fill="none" stroke="black" points="228,-125.07 228,-280.07 324,-280.07 324,-125.07 228,-125.07"/>
<text text-anchor="middle" x="276" y="-264.87" font-family="Times,serif" font-size="14.00">March</text>
</g>
<g id="clust4" class="cluster">
<title>cluster_3</title>
<polygon fill="none" stroke="black" points="344,-143.07 344,-426.07 441,-426.07 441,-143.07 344,-143.07"/>
<text text-anchor="middle" x="392.5" y="-410.87" font-family="Times,serif" font-size="14.00">April</text>
</g>
<g id="clust5" class="cluster">
<title>cluster_4</title>
<polygon fill="none" stroke="black" points="461,-327.07 461,-497.07 558,-497.07 558,-327.07 461,-327.07"/>
<text text-anchor="middle" x="509.5" y="-481.87" font-family="Times,serif" font-size="14.00">May</text>
</g>
<g id="clust6" class="cluster">
<title>cluster_5</title>
<polygon fill="none" stroke="black" points="578,-47.07 578,-370.07 675,-370.07 675,-47.07 578,-47.07"/>
<text text-anchor="middle" x="626.5" y="-354.87" font-family="Times,serif" font-size="14.00">June</text>
</g>
<g id="clust7" class="cluster">
<title>cluster_6</title>
<polygon fill="none" stroke="black" points="695,-237.07 695,-351.07 791,-351.07 791,-237.07 695,-237.07"/>
<text text-anchor="middle" x="743" y="-335.87" font-family="Times,serif" font-size="14.00">July</text>
</g>
<g id="clust8" class="cluster">
<title>cluster_7</title>
<polygon fill="none" stroke="black" points="811,-245.07 811,-344.07 908,-344.07 908,-245.07 811,-245.07"/>
<text text-anchor="middle" x="859.5" y="-328.87" font-family="Times,serif" font-size="14.00">August</text>
</g>
<g id="clust9" class="cluster">
<title>cluster_8</title>
<polygon fill="none" stroke="black" points="928,-208.07 928,-562.07 1025,-562.07 1025,-208.07 928,-208.07"/>
<text text-anchor="middle" x="976.5" y="-546.87" font-family="Times,serif" font-size="14.00">September</text>
</g>
<g id="clust10" class="cluster">
<title>cluster_9</title>
<polygon fill="none" stroke="black" points="1045,-208.07 1045,-363.07 1142,-363.07 1142,-208.07 1045,-208.07"/>
<text text-anchor="middle" x="1093.5" y="-347.87" font-family="Times,serif" font-size="14.00">October</text>
</g>
<g id="clust11" class="cluster">
<title>cluster_10</title>
<polygon fill="none" stroke="black" points="1162,-18.07 1162,-498.07 1259,-498.07 1259,-18.07 1162,-18.07"/>
<text text-anchor="middle" x="1210.5" y="-482.87" font-family="Times,serif" font-size="14.00">November</text>
</g>
<!-- order_node_0 -->
<!-- order_node_1 -->
<!-- order_node_0&#45;&gt;order_node_1 -->
<!-- node_0 -->
<g id="node2" class="node">
<title>node_0</title>
<g id="a_node2"><a xlink:href="http://www.ijcai.org/" xlink:title="International Joint Conference on Artificial Intelligence" target="_blank">
<polygon fill="none" stroke="black" points="84,-395.07 16,-395.07 16,-357.07 84,-357.07 84,-395.07"/>
<text text-anchor="middle" x="50" y="-379.87" font-family="Times,serif" font-size="14.00">IJCAI</text>
<text text-anchor="middle" x="50" y="-364.87" font-family="Times,serif" font-size="14.00">Abstracts</text>
</a>
</g>
</g>
<!-- node_2 -->
<g id="node5" class="node">
<title>node_2</title>
<g id="a_node5"><a xlink:href="http://www.ijcai.org/" xlink:title="International Joint Conference on Artificial Intelligence" target="_blank">
<polygon fill="none" stroke="black" points="200,-395.07 120,-395.07 120,-357.07 200,-357.07 200,-395.07"/>
<text text-anchor="middle" x="160" y="-379.87" font-family="Times,serif" font-size="14.00">IJCAI</text>
<text text-anchor="middle" x="160" y="-364.87" font-family="Times,serif" font-size="14.00">Submission</text>
</a>
</g>
</g>
<!-- node_0&#45;&gt;node_2 -->
<g id="edge1" class="edge">
<title>node_0&#45;&gt;node_2</title>
<path fill="none" stroke="black" d="M84.28,-376.07C92.39,-376.07 101.23,-376.07 109.91,-376.07"/>
<polygon fill="black" stroke="black" points="109.95,-379.57 119.95,-376.07 109.95,-372.57 109.95,-379.57"/>
</g>
<!-- node_1 -->
<g id="node3" class="node">
<title>node_1</title>
<g id="a_node3"><a xlink:href="https://icml.cc" xlink:title="Conference on Neural Information Processing Systems" target="_blank">
<polygon fill="none" stroke="black" points="84,-451.07 16,-451.07 16,-413.07 84,-413.07 84,-451.07"/>
<text text-anchor="middle" x="50" y="-435.87" font-family="Times,serif" font-size="14.00">ICML</text>
<text text-anchor="middle" x="50" y="-420.87" font-family="Times,serif" font-size="14.00">Abstracts</text>
</a>
</g>
</g>
<!-- node_3 -->
<g id="node6" class="node">
<title>node_3</title>
<g id="a_node6"><a xlink:href="https://icml.cc" xlink:title="Conference on Neural Information Processing Systems" target="_blank">
<polygon fill="none" stroke="black" points="200,-451.07 120,-451.07 120,-413.07 200,-413.07 200,-451.07"/>
<text text-anchor="middle" x="160" y="-435.87" font-family="Times,serif" font-size="14.00">ICML</text>
<text text-anchor="middle" x="160" y="-420.87" font-family="Times,serif" font-size="14.00">Submission</text>
</a>
</g>
</g>
<!-- node_1&#45;&gt;node_3 -->
<g id="edge3" class="edge">
<title>node_1&#45;&gt;node_3</title>
<path fill="none" stroke="black" d="M84.28,-432.07C92.39,-432.07 101.23,-432.07 109.91,-432.07"/>
<polygon fill="black" stroke="black" points="109.95,-435.57 119.95,-432.07 109.95,-428.57 109.95,-435.57"/>
</g>
<!-- order_node_2 -->
<!-- order_node_1&#45;&gt;order_node_2 -->
<!-- node_6 -->
<g id="node11" class="node">
<title>node_6</title>
<g id="a_node11"><a xlink:href="http://www.ijcai.org/" xlink:title="International Joint Conference on Artificial Intelligence" target="_blank">
<polygon fill="none" stroke="black" points="433,-395.07 352,-395.07 352,-357.07 433,-357.07 433,-395.07"/>
<text text-anchor="middle" x="392.5" y="-379.87" font-family="Times,serif" font-size="14.00">IJCAI</text>
<text text-anchor="middle" x="392.5" y="-364.87" font-family="Times,serif" font-size="14.00">Notification</text>
</a>
</g>
</g>
<!-- node_2&#45;&gt;node_6 -->
<g id="edge2" class="edge">
<title>node_2&#45;&gt;node_6</title>
<path fill="none" stroke="black" d="M200.1,-376.07C239.14,-376.07 299.28,-376.07 341.71,-376.07"/>
<polygon fill="black" stroke="black" points="341.82,-379.57 351.82,-376.07 341.82,-372.57 341.82,-379.57"/>
</g>
<!-- node_11 -->
<g id="node17" class="node">
<title>node_11</title>
<g id="a_node17"><a xlink:href="https://icml.cc" xlink:title="Conference on Neural Information Processing Systems" target="_blank">
<polygon fill="none" stroke="black" points="550,-466.07 469,-466.07 469,-428.07 550,-428.07 550,-466.07"/>
<text text-anchor="middle" x="509.5" y="-450.87" font-family="Times,serif" font-size="14.00">ICML</text>
<text text-anchor="middle" x="509.5" y="-435.87" font-family="Times,serif" font-size="14.00">Notification</text>
</a>
</g>
</g>
<!-- node_3&#45;&gt;node_11 -->
<g id="edge4" class="edge">
<title>node_3&#45;&gt;node_11</title>
<path fill="none" stroke="black" d="M200.19,-433.76C263.67,-436.51 388.9,-441.91 458.64,-444.92"/>
<polygon fill="black" stroke="black" points="458.78,-448.43 468.92,-445.37 459.08,-441.44 458.78,-448.43"/>
</g>
<!-- order_node_3 -->
<!-- order_node_2&#45;&gt;order_node_3 -->
<!-- node_4 -->
<g id="node8" class="node">
<title>node_4</title>
<g id="a_node8"><a xlink:href="http://auai.org/uai2017/index.php" xlink:title="Conference on Uncertainty in Artificial Intelligence" target="_blank">
<polygon fill="none" stroke="black" points="316,-171.07 236,-171.07 236,-133.07 316,-133.07 316,-171.07"/>
<text text-anchor="middle" x="276" y="-155.87" font-family="Times,serif" font-size="14.00">UAI</text>
<text text-anchor="middle" x="276" y="-140.87" font-family="Times,serif" font-size="14.00">Submission</text>
</a>
</g>
</g>
<!-- node_14 -->
<g id="node21" class="node">
<title>node_14</title>
<g id="a_node21"><a xlink:href="http://auai.org/uai2017/index.php" xlink:title="Conference on Uncertainty in Artificial Intelligence" target="_blank">
<polygon fill="none" stroke="black" points="667,-93.07 586,-93.07 586,-55.07 667,-55.07 667,-93.07"/>
<text text-anchor="middle" x="626.5" y="-77.87" font-family="Times,serif" font-size="14.00">UAI</text>
<text text-anchor="middle" x="626.5" y="-62.87" font-family="Times,serif" font-size="14.00">Notification</text>
</a>
</g>
</g>
<!-- node_4&#45;&gt;node_14 -->
<g id="edge5" class="edge">
<title>node_4&#45;&gt;node_14</title>
<path fill="none" stroke="black" d="M301.05,-132.9C313.23,-124.19 328.66,-114.62 344,-109.07 421.6,-81 518.22,-74.68 575.72,-73.67"/>
<polygon fill="black" stroke="black" points="576.03,-77.16 585.98,-73.54 575.94,-70.16 576.03,-77.16"/>
</g>
<!-- node_5 -->
<g id="node9" class="node">
<title>node_5</title>
<g id="a_node9"><a xlink:href="http://www.iros.org/" xlink:title="International Conference on Intelligent Robots and Systems" target="_blank">
<polygon fill="none" stroke="black" points="316,-227.07 236,-227.07 236,-189.07 316,-189.07 316,-227.07"/>
<text text-anchor="middle" x="276" y="-211.87" font-family="Times,serif" font-size="14.00">IROS</text>
<text text-anchor="middle" x="276" y="-196.87" font-family="Times,serif" font-size="14.00">Submission</text>
</a>
</g>
</g>
<!-- node_15 -->
<g id="node22" class="node">
<title>node_15</title>
<g id="a_node22"><a xlink:href="http://www.iros.org/" xlink:title="International Conference on Intelligent Robots and Systems" target="_blank">
<polygon fill="none" stroke="black" points="667,-149.07 586,-149.07 586,-111.07 667,-111.07 667,-149.07"/>
<text text-anchor="middle" x="626.5" y="-133.87" font-family="Times,serif" font-size="14.00">IROS</text>
<text text-anchor="middle" x="626.5" y="-118.87" font-family="Times,serif" font-size="14.00">Notification</text>
</a>
</g>
</g>
<!-- node_5&#45;&gt;node_15 -->
<g id="edge6" class="edge">
<title>node_5&#45;&gt;node_15</title>
<path fill="none" stroke="black" d="M314.02,-188.95C317.63,-186.25 321.04,-183.29 324,-180.07 337.73,-165.15 326.98,-150.09 344,-139.07 381.02,-115.11 505.63,-120.45 576.01,-125.69"/>
<polygon fill="black" stroke="black" points="575.75,-129.18 585.99,-126.46 576.29,-122.2 575.75,-129.18"/>
</g>
<!-- order_node_4 -->
<!-- order_node_3&#45;&gt;order_node_4 -->
<!-- node_7 -->
<g id="node12" class="node">
<title>node_7</title>
<g id="a_node12"><a xlink:href="http://www.ecai2016.org/" xlink:title="European Conference on Artificial Intelligence" target="_blank">
<polygon fill="none" stroke="black" points="432.5,-317.07 352.5,-317.07 352.5,-279.07 432.5,-279.07 432.5,-317.07"/>
<text text-anchor="middle" x="392.5" y="-301.87" font-family="Times,serif" font-size="14.00">ECAI</text>
<text text-anchor="middle" x="392.5" y="-286.87" font-family="Times,serif" font-size="14.00">Submission</text>
</a>
</g>
</g>
<!-- node_12 -->
<g id="node19" class="node">
<title>node_12</title>
<g id="a_node19"><a xlink:href="http://www.ecai2016.org/" xlink:title="European Conference on Artificial Intelligence" target="_blank">
<polygon fill="none" stroke="black" points="667,-317.07 586,-317.07 586,-279.07 667,-279.07 667,-317.07"/>
<text text-anchor="middle" x="626.5" y="-301.87" font-family="Times,serif" font-size="14.00">ECAI</text>
<text text-anchor="middle" x="626.5" y="-286.87" font-family="Times,serif" font-size="14.00">Notification</text>
</a>
</g>
</g>
<!-- node_7&#45;&gt;node_12 -->
<g id="edge7" class="edge">
<title>node_7&#45;&gt;node_12</title>
<path fill="none" stroke="black" d="M432.59,-298.07C471.96,-298.07 532.84,-298.07 575.66,-298.07"/>
<polygon fill="black" stroke="black" points="575.86,-301.57 585.86,-298.07 575.86,-294.57 575.86,-301.57"/>
</g>
<!-- node_8 -->
<g id="node13" class="node">
<title>node_8</title>
<g id="a_node13"><a xlink:href="http://wibih.unomaha.edu/wi" xlink:title="International Conference on Intelligent Agent Technology" target="_blank">
<polygon fill="none" stroke="black" points="432.5,-261.07 352.5,-261.07 352.5,-223.07 432.5,-223.07 432.5,-261.07"/>
<text text-anchor="middle" x="392.5" y="-245.87" font-family="Times,serif" font-size="14.00">IAT</text>
<text text-anchor="middle" x="392.5" y="-230.87" font-family="Times,serif" font-size="14.00">Submission</text>
</a>
</g>
</g>
<!-- node_13 -->
<g id="node20" class="node">
<title>node_13</title>
<g id="a_node20"><a xlink:href="http://wibih.unomaha.edu/wi" xlink:title="International Conference on Intelligent Agent Technology" target="_blank">
<polygon fill="none" stroke="black" points="667,-261.07 586,-261.07 586,-223.07 667,-223.07 667,-261.07"/>
<text text-anchor="middle" x="626.5" y="-245.87" font-family="Times,serif" font-size="14.00">IAT</text>
<text text-anchor="middle" x="626.5" y="-230.87" font-family="Times,serif" font-size="14.00">Notification</text>
</a>
</g>
</g>
<!-- node_8&#45;&gt;node_13 -->
<g id="edge8" class="edge">
<title>node_8&#45;&gt;node_13</title>
<path fill="none" stroke="black" d="M432.59,-242.07C471.96,-242.07 532.84,-242.07 575.66,-242.07"/>
<polygon fill="black" stroke="black" points="575.86,-245.57 585.86,-242.07 575.86,-238.57 575.86,-245.57"/>
</g>
<!-- node_9 -->
<g id="node14" class="node">
<title>node_9</title>
<g id="a_node14"><a xlink:href="http://software.imdea.org/Conferences/ICLP2016/" xlink:title="International Conference on Logic Programming" target="_blank">
<polygon fill="none" stroke="black" points="432.5,-204.57 352.5,-204.57 352.5,-151.57 432.5,-151.57 432.5,-204.57"/>
<text text-anchor="middle" x="392.5" y="-189.37" font-family="Times,serif" font-size="14.00">ICLP</text>
<text text-anchor="middle" x="392.5" y="-174.37" font-family="Times,serif" font-size="14.00">Abstracts</text>
<text text-anchor="middle" x="392.5" y="-159.37" font-family="Times,serif" font-size="14.00">Submission</text>
</a>
</g>
</g>
<!-- node_16 -->
<g id="node23" class="node">
<title>node_16</title>
<g id="a_node23"><a xlink:href="http://software.imdea.org/Conferences/ICLP2016/" xlink:title="International Conference on Logic Programming" target="_blank">
<polygon fill="none" stroke="black" points="667,-205.07 586,-205.07 586,-167.07 667,-167.07 667,-205.07"/>
<text text-anchor="middle" x="626.5" y="-189.87" font-family="Times,serif" font-size="14.00">ICLP</text>
<text text-anchor="middle" x="626.5" y="-174.87" font-family="Times,serif" font-size="14.00">Notification</text>
</a>
</g>
</g>
<!-- node_9&#45;&gt;node_16 -->
<g id="edge9" class="edge">
<title>node_9&#45;&gt;node_16</title>
<path fill="none" stroke="black" d="M432.59,-179.42C471.96,-180.78 532.84,-182.88 575.66,-184.35"/>
<polygon fill="black" stroke="black" points="575.74,-187.86 585.86,-184.71 575.98,-180.86 575.74,-187.86"/>
</g>
<!-- order_node_5 -->
<!-- order_node_4&#45;&gt;order_node_5 -->
<!-- node_10 -->
<g id="node16" class="node">
<title>node_10</title>
<g id="a_node16"><a xlink:href="https://neurips.cc" xlink:title="Conference on Neural Information Processing Systems" target="_blank">
<polygon fill="none" stroke="black" points="549.5,-409.57 469.5,-409.57 469.5,-356.57 549.5,-356.57 549.5,-409.57"/>
<text text-anchor="middle" x="509.5" y="-394.37" font-family="Times,serif" font-size="14.00">NeurIPS</text>
<text text-anchor="middle" x="509.5" y="-379.37" font-family="Times,serif" font-size="14.00">Abstracts</text>
<text text-anchor="middle" x="509.5" y="-364.37" font-family="Times,serif" font-size="14.00">Submission</text>
</a>
</g>
</g>
<!-- node_23 -->
<g id="node33" class="node">
<title>node_23</title>
<g id="a_node33"><a xlink:href="https://neurips.cc" xlink:title="Conference on Neural Information Processing Systems" target="_blank">
<polygon fill="none" stroke="black" points="1017,-531.07 936,-531.07 936,-493.07 1017,-493.07 1017,-531.07"/>
<text text-anchor="middle" x="976.5" y="-515.87" font-family="Times,serif" font-size="14.00">NeurIPS</text>
<text text-anchor="middle" x="976.5" y="-500.87" font-family="Times,serif" font-size="14.00">Notification</text>
</a>
</g>
</g>
<!-- node_10&#45;&gt;node_23 -->
<g id="edge10" class="edge">
<title>node_10&#45;&gt;node_23</title>
<path fill="none" stroke="black" d="M549.74,-393.96C634.25,-417.4 833.27,-472.62 926.15,-498.38"/>
<polygon fill="black" stroke="black" points="925.3,-501.78 935.87,-501.08 927.17,-495.03 925.3,-501.78"/>
</g>
<!-- order_node_6 -->
<!-- order_node_5&#45;&gt;order_node_6 -->
<!-- order_node_7 -->
<!-- order_node_6&#45;&gt;order_node_7 -->
<!-- node_17 -->
<g id="node25" class="node">
<title>node_17</title>
<g id="a_node25"><a xlink:href="http://sbgames.org/" xlink:title="Simposio Brasileiro de Games e Entretenimento Digital" target="_blank">
<polygon fill="none" stroke="black" points="783,-298.57 703,-298.57 703,-245.57 783,-245.57 783,-298.57"/>
<text text-anchor="middle" x="743" y="-283.37" font-family="Times,serif" font-size="14.00">SBGames</text>
<text text-anchor="middle" x="743" y="-268.37" font-family="Times,serif" font-size="14.00">Abstracts</text>
<text text-anchor="middle" x="743" y="-253.37" font-family="Times,serif" font-size="14.00">Submission</text>
</a>
</g>
</g>
<!-- node_18 -->
<g id="node27" class="node">
<title>node_18</title>
<g id="a_node27"><a xlink:href="http://sbgames.org/" xlink:title="Simposio Brasileiro de Games e Entretenimento Digital" target="_blank">
<polygon fill="none" stroke="black" points="900,-291.07 819,-291.07 819,-253.07 900,-253.07 900,-291.07"/>
<text text-anchor="middle" x="859.5" y="-275.87" font-family="Times,serif" font-size="14.00">SBGames</text>
<text text-anchor="middle" x="859.5" y="-260.87" font-family="Times,serif" font-size="14.00">Notification</text>
</a>
</g>
</g>
<!-- node_17&#45;&gt;node_18 -->
<g id="edge11" class="edge">
<title>node_17&#45;&gt;node_18</title>
<path fill="none" stroke="black" d="M783.08,-272.07C791.28,-272.07 800.04,-272.07 808.57,-272.07"/>
<polygon fill="black" stroke="black" points="808.81,-275.57 818.81,-272.07 808.81,-268.57 808.81,-275.57"/>
</g>
<!-- order_node_8 -->
<!-- order_node_7&#45;&gt;order_node_8 -->
<!-- order_node_9 -->
<!-- order_node_8&#45;&gt;order_node_9 -->
<!-- node_19 -->
<g id="node29" class="node">
<title>node_19</title>
<g id="a_node29"><a xlink:href="http://www.icra2017.org/" xlink:title="International Conference on Robotics and Automation" target="_blank">
<polygon fill="none" stroke="black" points="1016.5,-254.07 936.5,-254.07 936.5,-216.07 1016.5,-216.07 1016.5,-254.07"/>
<text text-anchor="middle" x="976.5" y="-238.87" font-family="Times,serif" font-size="14.00">ICRA</text>
<text text-anchor="middle" x="976.5" y="-223.87" font-family="Times,serif" font-size="14.00">Submission</text>
</a>
</g>
</g>
<!-- node_33 -->
<g id="node47" class="node">
<title>node_33</title>
<g id="a_node47"><a xlink:href="http://www.icra2017.org/" xlink:title="International Conference on Robotics and Automation" target="_blank">
<polygon fill="none" stroke="black" points="1459.6,-81.07 1378.6,-81.07 1378.6,-43.07 1459.6,-43.07 1459.6,-81.07"/>
<text text-anchor="middle" x="1419.1" y="-65.87" font-family="Times,serif" font-size="14.00">ICRA</text>
<text text-anchor="middle" x="1419.1" y="-50.87" font-family="Times,serif" font-size="14.00">Notification</text>
</a>
</g>
</g>
<!-- node_19&#45;&gt;node_33 -->
<g id="edge12" class="edge">
<title>node_19&#45;&gt;node_33</title>
<path fill="none" stroke="black" d="M986.29,-215.77C1008.24,-170.28 1070.32,-56.96 1162,-14.07 1231.77,18.57 1322.03,-13.45 1374.65,-38.55"/>
<polygon fill="black" stroke="black" points="1373.19,-41.73 1383.71,-42.98 1376.27,-35.44 1373.19,-41.73"/>
</g>
<!-- node_20 -->
<g id="node30" class="node">
<title>node_20</title>
<g id="a_node30"><a xlink:href="http://www.sigapp.org/sac/" xlink:title="Symposium On Applied Computing" target="_blank">
<polygon fill="none" stroke="black" points="1016.5,-474.57 936.5,-474.57 936.5,-421.57 1016.5,-421.57 1016.5,-474.57"/>
<text text-anchor="middle" x="976.5" y="-459.37" font-family="Times,serif" font-size="14.00">SAC</text>
<text text-anchor="middle" x="976.5" y="-444.37" font-family="Times,serif" font-size="14.00">Abstracts</text>
<text text-anchor="middle" x="976.5" y="-429.37" font-family="Times,serif" font-size="14.00">Submission</text>
</a>
</g>
</g>
<!-- node_27 -->
<g id="node39" class="node">
<title>node_27</title>
<g id="a_node39"><a xlink:href="http://www.sigapp.org/sac/" xlink:title="Symposium On Applied Computing" target="_blank">
<polygon fill="none" stroke="black" points="1251,-467.07 1170,-467.07 1170,-429.07 1251,-429.07 1251,-467.07"/>
<text text-anchor="middle" x="1210.5" y="-451.87" font-family="Times,serif" font-size="14.00">SAC</text>
<text text-anchor="middle" x="1210.5" y="-436.87" font-family="Times,serif" font-size="14.00">Notification</text>
</a>
</g>
</g>
<!-- node_20&#45;&gt;node_27 -->
<g id="edge13" class="edge">
<title>node_20&#45;&gt;node_27</title>
<path fill="none" stroke="black" d="M1016.59,-448.07C1055.96,-448.07 1116.84,-448.07 1159.66,-448.07"/>
<polygon fill="black" stroke="black" points="1159.86,-451.57 1169.86,-448.07 1159.86,-444.57 1159.86,-451.57"/>
</g>
<!-- node_21 -->
<g id="node31" class="node">
<title>node_21</title>
<g id="a_node31"><a xlink:href="http://www.aaai.org/Conferences/conferences.php" xlink:title="Association for the Advancement of Artificial Intelligence" target="_blank">
<polygon fill="none" stroke="black" points="1016.5,-403.57 936.5,-403.57 936.5,-350.57 1016.5,-350.57 1016.5,-403.57"/>
<text text-anchor="middle" x="976.5" y="-388.37" font-family="Times,serif" font-size="14.00">AAAI</text>
<text text-anchor="middle" x="976.5" y="-373.37" font-family="Times,serif" font-size="14.00">Abstracts</text>
<text text-anchor="middle" x="976.5" y="-358.37" font-family="Times,serif" font-size="14.00">Submission</text>
</a>
</g>
</g>
<!-- node_26 -->
<g id="node38" class="node">
<title>node_26</title>
<g id="a_node38"><a xlink:href="http://www.aaai.org/Conferences/conferences.php" xlink:title="Association for the Advancement of Artificial Intelligence" target="_blank">
<polygon fill="none" stroke="black" points="1251,-411.07 1170,-411.07 1170,-373.07 1251,-373.07 1251,-411.07"/>
<text text-anchor="middle" x="1210.5" y="-395.87" font-family="Times,serif" font-size="14.00">AAAI</text>
<text text-anchor="middle" x="1210.5" y="-380.87" font-family="Times,serif" font-size="14.00">Notification</text>
</a>
</g>
</g>
<!-- node_21&#45;&gt;node_26 -->
<g id="edge14" class="edge">
<title>node_21&#45;&gt;node_26</title>
<path fill="none" stroke="black" d="M1016.59,-379.6C1055.96,-382.15 1116.84,-386.08 1159.66,-388.85"/>
<polygon fill="black" stroke="black" points="1159.65,-392.36 1169.86,-389.51 1160.1,-385.37 1159.65,-392.36"/>
</g>
<!-- node_22 -->
<g id="node32" class="node">
<title>node_22</title>
<g id="a_node32"><a xlink:href="http://eumas-at2016.webs.upv.es/EUMAS2016.html" xlink:title="European Conference on Multi&#45;Agent Systems" target="_blank">
<polygon fill="none" stroke="black" points="1016.5,-332.07 936.5,-332.07 936.5,-294.07 1016.5,-294.07 1016.5,-332.07"/>
<text text-anchor="middle" x="976.5" y="-316.87" font-family="Times,serif" font-size="14.00">EUMAS</text>
<text text-anchor="middle" x="976.5" y="-301.87" font-family="Times,serif" font-size="14.00">Submission</text>
</a>
</g>
</g>
<!-- node_24 -->
<g id="node35" class="node">
<title>node_24</title>
<g id="a_node35"><a xlink:href="http://eumas-at2016.webs.upv.es/EUMAS2016.html" xlink:title="European Conference on Multi&#45;Agent Systems" target="_blank">
<polygon fill="none" stroke="black" points="1134,-332.07 1053,-332.07 1053,-294.07 1134,-294.07 1134,-332.07"/>
<text text-anchor="middle" x="1093.5" y="-316.87" font-family="Times,serif" font-size="14.00">EUMAS</text>
<text text-anchor="middle" x="1093.5" y="-301.87" font-family="Times,serif" font-size="14.00">Notification</text>
</a>
</g>
</g>
<!-- node_22&#45;&gt;node_24 -->
<g id="edge15" class="edge">
<title>node_22&#45;&gt;node_24</title>
<path fill="none" stroke="black" d="M1016.75,-313.07C1025.08,-313.07 1033.97,-313.07 1042.63,-313.07"/>
<polygon fill="black" stroke="black" points="1042.64,-316.57 1052.64,-313.07 1042.64,-309.57 1042.64,-316.57"/>
</g>
<!-- order_node_10 -->
<!-- order_node_9&#45;&gt;order_node_10 -->
<!-- node_25 -->
<g id="node36" class="node">
<title>node_25</title>
<g id="a_node36"><a xlink:href="http://www.icaart.org/" xlink:title="International Conference on Agents and Artificial Intelligence" target="_blank">
<polygon fill="none" stroke="black" points="1133.5,-254.07 1053.5,-254.07 1053.5,-216.07 1133.5,-216.07 1133.5,-254.07"/>
<text text-anchor="middle" x="1093.5" y="-238.87" font-family="Times,serif" font-size="14.00">ICAART</text>
<text text-anchor="middle" x="1093.5" y="-223.87" font-family="Times,serif" font-size="14.00">Submission</text>
</a>
</g>
</g>
<!-- node_32 -->
<g id="node44" class="node">
<title>node_32</title>
<g id="a_node44"><a xlink:href="http://www.icaart.org/" xlink:title="International Conference on Agents and Artificial Intelligence" target="_blank">
<polygon fill="none" stroke="black" points="1251,-64.07 1170,-64.07 1170,-26.07 1251,-26.07 1251,-64.07"/>
<text text-anchor="middle" x="1210.5" y="-48.87" font-family="Times,serif" font-size="14.00">ICAART</text>
<text text-anchor="middle" x="1210.5" y="-33.87" font-family="Times,serif" font-size="14.00">Notification</text>
</a>
</g>
</g>
<!-- node_25&#45;&gt;node_32 -->
<g id="edge16" class="edge">
<title>node_25&#45;&gt;node_32</title>
<path fill="none" stroke="black" d="M1098.29,-216C1105.61,-183.39 1124.38,-116.27 1162,-73.07 1162.61,-72.38 1163.23,-71.7 1163.88,-71.03"/>
<polygon fill="black" stroke="black" points="1166.26,-73.59 1171.42,-64.34 1161.61,-68.36 1166.26,-73.59"/>
</g>
<!-- order_node_11 -->
<!-- order_node_10&#45;&gt;order_node_11 -->
<!-- node_28 -->
<g id="node40" class="node">
<title>node_28</title>
<g id="a_node40"><a xlink:href="http://www.icaps-conference.org/" xlink:title="International Conference on Automated Planning and Scheduling" target="_blank">
<polygon fill="none" stroke="black" points="1250.5,-262.57 1170.5,-262.57 1170.5,-209.57 1250.5,-209.57 1250.5,-262.57"/>
<text text-anchor="middle" x="1210.5" y="-247.37" font-family="Times,serif" font-size="14.00">ICAPS</text>
<text text-anchor="middle" x="1210.5" y="-232.37" font-family="Times,serif" font-size="14.00">Abstracts</text>
<text text-anchor="middle" x="1210.5" y="-217.37" font-family="Times,serif" font-size="14.00">Submission</text>
</a>
</g>
</g>
<!-- node_34 -->
<g id="node48" class="node">
<title>node_34</title>
<g id="a_node48"><a xlink:href="http://www.icaps-conference.org/" xlink:title="International Conference on Automated Planning and Scheduling" target="_blank">
<polygon fill="none" stroke="black" points="1459.6,-249.07 1378.6,-249.07 1378.6,-211.07 1459.6,-211.07 1459.6,-249.07"/>
<text text-anchor="middle" x="1419.1" y="-233.87" font-family="Times,serif" font-size="14.00">ICAPS</text>
<text text-anchor="middle" x="1419.1" y="-218.87" font-family="Times,serif" font-size="14.00">Notification</text>
</a>
</g>
</g>
<!-- node_28&#45;&gt;node_34 -->
<g id="edge17" class="edge">
<title>node_28&#45;&gt;node_34</title>
<path fill="none" stroke="black" d="M1250.85,-234.93C1284.2,-233.96 1332.22,-232.57 1368.25,-231.52"/>
<polygon fill="black" stroke="black" points="1368.65,-235.01 1378.55,-231.22 1368.45,-228.01 1368.65,-235.01"/>
</g>
<!-- node_29 -->
<g id="node41" class="node">
<title>node_29</title>
<g id="a_node41"><a xlink:href="http://www.ifaamas.org/" xlink:title="International Conference on Autonomous Agents and Multiagent Systems" target="_blank">
<polygon fill="none" stroke="black" points="1250.5,-191.57 1170.5,-191.57 1170.5,-138.57 1250.5,-138.57 1250.5,-191.57"/>
<text text-anchor="middle" x="1210.5" y="-176.37" font-family="Times,serif" font-size="14.00">AAMAS</text>
<text text-anchor="middle" x="1210.5" y="-161.37" font-family="Times,serif" font-size="14.00">Abstracts</text>
<text text-anchor="middle" x="1210.5" y="-146.37" font-family="Times,serif" font-size="14.00">Submission</text>
</a>
</g>
</g>
<!-- node_35 -->
<g id="node49" class="node">
<title>node_35</title>
<g id="a_node49"><a xlink:href="http://www.ifaamas.org/" xlink:title="International Conference on Autonomous Agents and Multiagent Systems" target="_blank">
<polygon fill="none" stroke="black" points="1459.6,-193.07 1378.6,-193.07 1378.6,-155.07 1459.6,-155.07 1459.6,-193.07"/>
<text text-anchor="middle" x="1419.1" y="-177.87" font-family="Times,serif" font-size="14.00">AAMAS</text>
<text text-anchor="middle" x="1419.1" y="-162.87" font-family="Times,serif" font-size="14.00">Notification</text>
</a>
</g>
</g>
<!-- node_29&#45;&gt;node_35 -->
<g id="edge18" class="edge">
<title>node_29&#45;&gt;node_35</title>
<path fill="none" stroke="black" d="M1250.85,-166.79C1284.2,-168.24 1332.22,-170.33 1368.25,-171.9"/>
<polygon fill="black" stroke="black" points="1368.41,-175.41 1378.55,-172.35 1368.71,-168.42 1368.41,-175.41"/>
</g>
<!-- node_30 -->
<g id="node42" class="node">
<title>node_30</title>
<g id="a_node42"><a xlink:href="http://www.kr.org/" xlink:title="International Conference on Principles of Knowledge Representation and Reasoning" target="_blank">
<polygon fill="none" stroke="black" points="1250.5,-354.57 1170.5,-354.57 1170.5,-301.57 1250.5,-301.57 1250.5,-354.57"/>
<text text-anchor="middle" x="1210.5" y="-339.37" font-family="Times,serif" font-size="14.00">KR</text>
<text text-anchor="middle" x="1210.5" y="-324.37" font-family="Times,serif" font-size="14.00">Abstracts</text>
<text text-anchor="middle" x="1210.5" y="-309.37" font-family="Times,serif" font-size="14.00">Submission</text>
</a>
</g>
</g>
<!-- node_37 -->
<g id="node52" class="node">
<title>node_37</title>
<g id="a_node52"><a xlink:href="http://www.kr.org/" xlink:title="International Conference on Principles of Knowledge Representation and Reasoning" target="_blank">
<polygon fill="none" stroke="black" points="1576.6,-335.07 1495.6,-335.07 1495.6,-297.07 1576.6,-297.07 1576.6,-335.07"/>
<text text-anchor="middle" x="1536.1" y="-319.87" font-family="Times,serif" font-size="14.00">KR</text>
<text text-anchor="middle" x="1536.1" y="-304.87" font-family="Times,serif" font-size="14.00">Notification</text>
</a>
</g>
</g>
<!-- node_30&#45;&gt;node_37 -->
<g id="edge19" class="edge">
<title>node_30&#45;&gt;node_37</title>
<path fill="none" stroke="black" d="M1250.53,-326.63C1309.29,-324.45 1420.45,-320.32 1485.08,-317.93"/>
<polygon fill="black" stroke="black" points="1485.56,-321.41 1495.42,-317.54 1485.3,-314.42 1485.56,-321.41"/>
</g>
<!-- node_31 -->
<g id="node43" class="node">
<title>node_31</title>
<g id="a_node43"><a xlink:href="http://www.flairs.com/" xlink:title="Florida Artificial Intelligence Research Society" target="_blank">
<polygon fill="none" stroke="black" points="1250.5,-120.07 1170.5,-120.07 1170.5,-82.07 1250.5,-82.07 1250.5,-120.07"/>
<text text-anchor="middle" x="1210.5" y="-104.87" font-family="Times,serif" font-size="14.00">FLAIRS</text>
<text text-anchor="middle" x="1210.5" y="-89.87" font-family="Times,serif" font-size="14.00">Submission</text>
</a>
</g>
</g>
<!-- node_36 -->
<g id="node50" class="node">
<title>node_36</title>
<g id="a_node50"><a xlink:href="http://www.flairs.com/" xlink:title="Florida Artificial Intelligence Research Society" target="_blank">
<polygon fill="none" stroke="black" points="1459.6,-137.07 1378.6,-137.07 1378.6,-99.07 1459.6,-99.07 1459.6,-137.07"/>
<text text-anchor="middle" x="1419.1" y="-121.87" font-family="Times,serif" font-size="14.00">FLAIRS</text>
<text text-anchor="middle" x="1419.1" y="-106.87" font-family="Times,serif" font-size="14.00">Notification</text>
</a>
</g>
</g>
<!-- node_31&#45;&gt;node_36 -->
<g id="edge20" class="edge">
<title>node_31&#45;&gt;node_36</title>
<path fill="none" stroke="black" d="M1250.85,-104.31C1284.2,-107.06 1332.22,-111.01 1368.25,-113.97"/>
<polygon fill="black" stroke="black" points="1368.3,-117.49 1378.55,-114.82 1368.87,-110.51 1368.3,-117.49"/>
</g>
<!-- order_node_12 -->
<!-- order_node_11&#45;&gt;order_node_12 -->
<!-- order_node_13 -->
<!-- order_node_12&#45;&gt;order_node_13 -->
</g>
</svg>
